<svg width="20" height="20" viewBox="0 0 20 20" fill="none" xmlns="http://www.w3.org/2000/svg">
<g clip-path="url(#clip0_636_3279)">
<path d="M5.83342 3.33334V1.66667H14.1667V3.33334H18.3334V5.00001H16.6667V17.5C16.6667 17.721 16.579 17.933 16.4227 18.0893C16.2664 18.2455 16.0544 18.3333 15.8334 18.3333H4.16675C3.94573 18.3333 3.73377 18.2455 3.57749 18.0893C3.42121 17.933 3.33341 17.721 3.33341 17.5V5.00001H1.66675V3.33334H5.83342ZM5.00008 5.00001V16.6667H15.0001V5.00001H5.00008ZM7.50008 7.50001H9.16675V14.1667H7.50008V7.50001ZM10.8334 7.50001H12.5001V14.1667H10.8334V7.50001Z" fill="#B3B9C9"/>
</g>
<defs>
<clipPath id="clip0_636_3279">
<rect width="20" height="20" fill="white"/>
</clipPath>
</defs>
</svg>
