<svg width="24" height="24" viewBox="0 0 24 24" fill="none" xmlns="http://www.w3.org/2000/svg">
<g clip-path="url(#clip0_1306_3750)">
<path d="M12 4.5C16.4933 4.5 20.2317 7.73333 21.0158 12C20.2325 16.2667 16.4933 19.5 12 19.5C7.50666 19.5 3.76833 16.2667 2.98416 12C3.76749 7.73333 7.50666 4.5 12 4.5ZM12 17.8333C13.6996 17.833 15.3486 17.2557 16.6774 16.196C18.0061 15.1363 18.9357 13.6569 19.3142 12C18.9344 10.3444 18.0041 8.86667 16.6755 7.80835C15.3469 6.75004 13.6986 6.17377 12 6.17377C10.3014 6.17377 8.65307 6.75004 7.32447 7.80835C5.99588 8.86667 5.06563 10.3444 4.68583 12C5.06424 13.6569 5.99389 15.1363 7.32261 16.196C8.65134 17.2557 10.3004 17.833 12 17.8333ZM12 15.75C11.0054 15.75 10.0516 15.3549 9.34834 14.6516C8.64508 13.9484 8.24999 12.9946 8.24999 12C8.24999 11.0054 8.64508 10.0516 9.34834 9.34835C10.0516 8.64509 11.0054 8.25 12 8.25C12.9946 8.25 13.9484 8.64509 14.6516 9.34835C15.3549 10.0516 15.75 11.0054 15.75 12C15.75 12.9946 15.3549 13.9484 14.6516 14.6516C13.9484 15.3549 12.9946 15.75 12 15.75ZM12 14.0833C12.5525 14.0833 13.0824 13.8638 13.4731 13.4731C13.8638 13.0824 14.0833 12.5525 14.0833 12C14.0833 11.4475 13.8638 10.9176 13.4731 10.5269C13.0824 10.1362 12.5525 9.91667 12 9.91667C11.4475 9.91667 10.9176 10.1362 10.5269 10.5269C10.1362 10.9176 9.91666 11.4475 9.91666 12C9.91666 12.5525 10.1362 13.0824 10.5269 13.4731C10.9176 13.8638 11.4475 14.0833 12 14.0833Z" fill="#B3B9C9"/>
</g>
<defs>
<clipPath id="clip0_1306_3750">
<rect width="24" height="24" fill="white" transform="translate(2 2)"/>
</clipPath>
</defs>
</svg>
