<svg width="24" height="24" viewBox="0 0 24 24" fill="none" xmlns="http://www.w3.org/2000/svg">
<path d="M6.44825 6.00626L6.88772 6.00802L6.88781 6.00802C7.00271 6.00856 7.11639 6.03172 7.22234 6.07619C7.3283 6.12066 7.42446 6.18556 7.50533 6.26719C7.5862 6.34882 7.6502 6.44558 7.69368 6.55195C7.73716 6.65831 7.75926 6.7722 7.75872 6.8871C7.75819 7.00201 7.73502 7.11569 7.69055 7.22164C7.64609 7.3276 7.58118 7.42375 7.49955 7.50463C7.41792 7.5855 7.32116 7.6495 7.2148 7.69298C7.10843 7.73645 6.99455 7.75856 6.87963 7.75802L4.33363 7.74602L4.33356 7.74602C4.10291 7.74479 3.88207 7.65254 3.71908 7.48934C3.5561 7.32613 3.46414 7.10517 3.46322 6.87452M6.44825 6.00626L19.0146 19.0144C22.8603 15.1697 22.8185 8.91757 18.9506 5.04963C15.1549 1.25289 9.06169 1.14375 5.20265 4.77528L5.20022 4.32135C5.19961 4.20645 5.17637 4.09279 5.13183 3.98686C5.08729 3.88094 5.02233 3.78482 4.94064 3.704C4.85896 3.62319 4.76215 3.55925 4.65576 3.51584C4.54937 3.47244 4.43546 3.45041 4.32056 3.45102C4.20565 3.45164 4.09199 3.47488 3.98606 3.51941C3.88014 3.56395 3.78402 3.62892 3.70321 3.7106C3.62239 3.79229 3.55845 3.88909 3.51504 3.99549C3.47164 4.10187 3.44962 4.21576 3.45022 4.33066C3.45022 4.33067 3.45023 4.33068 3.45023 4.33069L3.46322 6.87452M6.44825 6.00626C9.61358 3.07562 14.5924 3.16591 17.7138 6.28642C20.9098 9.48342 20.9272 14.6273 17.7778 17.7776M6.44825 6.00626L17.7778 17.7776M3.46322 6.87452L3.58822 6.87402L3.46323 6.87466L3.46322 6.87452ZM17.7778 17.7776C17.7778 17.7776 17.7778 17.7776 17.7778 17.7776C14.6274 20.927 9.4836 20.9096 6.2866 17.7136L6.28641 17.7134C5.38933 16.8204 4.71156 15.7314 4.30635 14.5322C3.90114 13.333 3.77953 12.0561 3.95107 10.802L3.95107 10.8019C3.98248 10.5719 3.92121 10.3388 3.78076 10.1539C3.64031 9.96907 3.43217 9.84757 3.20213 9.81617C2.9721 9.78477 2.73901 9.84603 2.55414 9.98648C2.36927 10.1269 2.24778 10.3351 2.21637 10.5651C2.00859 12.0867 2.15632 13.6358 2.64798 15.0908C3.13963 16.5457 3.96183 17.8669 5.05002 18.9506C8.91798 22.8184 15.17 22.859 19.0146 19.0144L17.8022 6.19802C21.0462 9.44302 21.0652 14.666 17.8662 17.866L17.7778 17.7776ZM11.9992 7.12402C11.9934 7.12402 11.9876 7.12443 11.982 7.12521C11.7565 7.12991 11.5413 7.22151 11.3815 7.3813C11.2174 7.5454 11.1252 7.76796 11.1252 8.00002V12.31C11.1252 12.3432 11.1384 12.375 11.1618 12.3984L13.8811 15.1177C13.9617 15.2009 14.058 15.2672 14.1645 15.3129C14.2712 15.3587 14.3861 15.3827 14.5023 15.3837C14.6184 15.3847 14.7336 15.3625 14.8412 15.3184C14.9487 15.2744 15.0463 15.2094 15.1285 15.1272C15.2106 15.045 15.2755 14.9472 15.3194 14.8397C15.3634 14.7321 15.3855 14.6169 15.3844 14.5007C15.3833 14.3845 15.3591 14.2697 15.3132 14.163C15.2675 14.0566 15.2011 13.9604 15.1179 13.8799L12.8742 11.6372V7.99902C12.8742 7.76696 12.782 7.5444 12.6179 7.3803C12.4538 7.21621 12.2313 7.12402 11.9992 7.12402Z" fill="#A2F1FF" stroke="#A2F1FF" stroke-width="0.25" stroke-linejoin="round"/>
</svg>
